<svg id="Layer_1" data-name="Layer 1" xmlns="http://www.w3.org/2000/svg" viewBox="0 0 275.29 275.28"><defs><style>.cls-1{font-size:39px;fill:#231f20;font-family:Montserrat-Medium, Montserrat;font-weight:500;}</style></defs><text class="cls-1" transform="matrix(0.93, -0.37, 0.37, 0.93, 85.7, 45.74)">B</text><text class="cls-1" transform="translate(111.85 35.64) rotate(-7.61)">e</text><text class="cls-1" transform="matrix(1, 0.02, -0.02, 1, 134.57, 33.04)">i</text><text class="cls-1" transform="matrix(0.98, 0.19, -0.19, 0.98, 144.47, 32.52)">n</text><text class="cls-1" transform="translate(169.25 37.09) rotate(24.82)">g</text><text class="cls-1" transform="translate(192.4 48.46) rotate(34.47)"> </text><text class="cls-1" transform="translate(200.56 53.81) rotate(41.33)">t</text><text class="cls-1" transform="matrix(0.61, 0.79, -0.79, 0.61, 212.21, 63.24)">h</text><text class="cls-1" transform="translate(227.69 83.25) rotate(65.34)">e</text><text class="cls-1" transform="translate(236.81 104.18) rotate(74.26)"> </text><text class="cls-1" transform="matrix(0.13, 0.99, -0.99, 0.13, 239.89, 113.24)">c</text><text class="cls-1" transform="translate(242.9 133.73) rotate(95.05)">h</text><text class="cls-1" transform="matrix(-0.31, 0.95, -0.95, -0.31, 240.67, 158.81)">a</text><text class="cls-1" transform="matrix(-0.51, 0.86, -0.86, -0.51, 234.2, 179.82)">n</text><text class="cls-1" transform="translate(221.4 201.56) rotate(134.69)">g</text><text class="cls-1" transform="translate(203.46 219.68) rotate(147.72)">e</text><text class="cls-1" transform="translate(183.9 231.52) rotate(156.61)"> </text><text class="cls-1" transform="translate(175.88 236.5) rotate(168.44)">w</text><text class="cls-1" transform="translate(143.6 242.64) rotate(-176.78)">e</text><text class="cls-1" transform="translate(120.8 240.92) rotate(-167.92)"> </text><text class="cls-1" transform="translate(111.37 239.68) rotate(-158.3)">n</text><text class="cls-1" transform="translate(87.88 230.32) rotate(-145.21)">e</text><text class="cls-1" transform="translate(69.27 217.56) rotate(-132.95)">e</text><text class="cls-1" transform="translate(53.72 201.31) rotate(-119.99)">d</text><text class="cls-1" transform="translate(41.48 178.94) rotate(-110.37)"> </text><text class="cls-1" transform="matrix(-0.23, -0.97, 0.97, -0.23, 37.9, 169.92)">t</text><text class="cls-1" transform="translate(34.02 156.05) rotate(-93.26)">o</text><text class="cls-1" transform="translate(33.15 132.34) rotate(-84.29)"> </text><text class="cls-1" transform="matrix(0.23, -0.97, 0.97, 0.23, 33.74, 122.71)">s</text><text class="cls-1" transform="translate(37.69 104.79) rotate(-65.26)">e</text><text class="cls-1" transform="translate(47 84.26) rotate(-52.95)">e</text></svg>